<mxfile host="app.diagrams.net" agent="Mozilla/5.0 (Windows NT 10.0; Win64; x64) AppleWebKit/537.36 (KHTML, like Gecko) Chrome/135.0.0.0 Safari/537.36" version="26.2.9">
  <diagram name="第 1 页" id="DrYwcsrSqI8XcHw-VVTQ">
    <mxGraphModel dx="363" dy="2937" grid="1" gridSize="10" guides="1" tooltips="1" connect="1" arrows="1" fold="1" page="1" pageScale="1" pageWidth="827" pageHeight="1169" math="1" shadow="0">
      <root>
        <mxCell id="0" />
        <mxCell id="1" parent="0" />
        <mxCell id="w1JR5-OPfSAF1FVDnx4g-18" value="" style="rounded=1;whiteSpace=wrap;html=1;dashed=1;fontFamily=Times New Roman;fontSize=18;strokeColor=#6c8ebf;fillColor=#dae8fc;movable=1;resizable=1;rotatable=1;deletable=1;editable=1;locked=0;connectable=1;" parent="1" vertex="1">
          <mxGeometry x="2290" y="-1373.65" width="279.68" height="75.54" as="geometry" />
        </mxCell>
        <mxCell id="kWs4Y9X6Xl8HtvSmb7lV-14" value="" style="rounded=1;whiteSpace=wrap;html=1;dashed=1;fontFamily=Times New Roman;fontSize=18;strokeColor=#9673a6;fillColor=#e1d5e7;" parent="1" vertex="1">
          <mxGeometry x="2574.84" y="-1373.65" width="295.16" height="75.54" as="geometry" />
        </mxCell>
        <mxCell id="w1JR5-OPfSAF1FVDnx4g-17" value="" style="rounded=0;whiteSpace=wrap;html=1;dashed=1;fontFamily=Times New Roman;fontSize=18;strokeColor=#AAE2FF;" parent="1" vertex="1">
          <mxGeometry x="2005.17" y="-1020" width="284.83" height="70" as="geometry" />
        </mxCell>
        <mxCell id="znDbkGUDBgg_eZ-vlcGg-1" value="" style="rounded=0;whiteSpace=wrap;html=1;dashed=1;strokeColor=#FF6666;fontFamily=Times New Roman;fontSize=18;" parent="1" vertex="1">
          <mxGeometry x="1674.1399999999999" y="-1391.3899999999999" width="190" height="170.54" as="geometry" />
        </mxCell>
        <mxCell id="znDbkGUDBgg_eZ-vlcGg-2" value="" style="rounded=0;whiteSpace=wrap;html=1;dashed=1;fontFamily=Times New Roman;fontSize=18;" parent="1" vertex="1">
          <mxGeometry x="1440" y="-1391.3899999999999" width="225" height="170.54" as="geometry" />
        </mxCell>
        <mxCell id="znDbkGUDBgg_eZ-vlcGg-3" style="rounded=0;orthogonalLoop=1;jettySize=auto;html=1;entryX=0.5;entryY=0;entryDx=0;entryDy=0;fontFamily=Times New Roman;fontSize=18;" parent="1" source="znDbkGUDBgg_eZ-vlcGg-4" target="znDbkGUDBgg_eZ-vlcGg-6" edge="1">
          <mxGeometry relative="1" as="geometry" />
        </mxCell>
        <mxCell id="znDbkGUDBgg_eZ-vlcGg-4" value="Start" style="rounded=1;whiteSpace=wrap;html=1;absoluteArcSize=0;arcSize=50;fontSize=16;fontFamily=Times New Roman;fillColor=#f5f5f5;fontColor=#333333;strokeColor=#666666;" parent="1" vertex="1">
          <mxGeometry x="1622.33" y="-1650" width="78" height="21.53" as="geometry" />
        </mxCell>
        <mxCell id="znDbkGUDBgg_eZ-vlcGg-5" style="rounded=0;orthogonalLoop=1;jettySize=auto;html=1;entryX=0.5;entryY=0;entryDx=0;entryDy=0;fontFamily=Times New Roman;fontSize=18;" parent="1" source="znDbkGUDBgg_eZ-vlcGg-6" target="znDbkGUDBgg_eZ-vlcGg-9" edge="1">
          <mxGeometry relative="1" as="geometry" />
        </mxCell>
        <mxCell id="znDbkGUDBgg_eZ-vlcGg-6" value="&lt;font&gt;Chebyshev Mapping Initialization&lt;/font&gt;" style="rounded=1;whiteSpace=wrap;html=1;align=center;verticalAlign=middle;arcSize=15;fontFamily=Times New Roman;fontSize=16;fillColor=#f5f5f5;fontColor=#333333;strokeColor=#666666;" parent="1" vertex="1">
          <mxGeometry x="1541.33" y="-1608.4699999999998" width="240" height="50" as="geometry" />
        </mxCell>
        <mxCell id="znDbkGUDBgg_eZ-vlcGg-7" style="edgeStyle=orthogonalEdgeStyle;rounded=0;orthogonalLoop=1;jettySize=auto;html=1;exitX=0.5;exitY=1;exitDx=0;exitDy=0;entryX=0.5;entryY=0;entryDx=0;entryDy=0;fontFamily=Times New Roman;fontSize=18;" parent="1" source="znDbkGUDBgg_eZ-vlcGg-9" target="znDbkGUDBgg_eZ-vlcGg-17" edge="1">
          <mxGeometry relative="1" as="geometry" />
        </mxCell>
        <mxCell id="znDbkGUDBgg_eZ-vlcGg-8" style="edgeStyle=orthogonalEdgeStyle;rounded=0;orthogonalLoop=1;jettySize=auto;html=1;fontFamily=Times New Roman;fontSize=18;exitX=1;exitY=0.5;exitDx=0;exitDy=0;" parent="1" source="3fcH1A0avGzYwGgjeC8N-6" edge="1">
          <mxGeometry relative="1" as="geometry">
            <Array as="points">
              <mxPoint x="2880" y="-1545" />
              <mxPoint x="2880" y="-1130" />
            </Array>
            <mxPoint x="2633.51" y="-1549.94" as="sourcePoint" />
            <mxPoint x="2570" y="-1130" as="targetPoint" />
          </mxGeometry>
        </mxCell>
        <mxCell id="znDbkGUDBgg_eZ-vlcGg-9" value="&lt;font&gt;&amp;nbsp;&lt;/font&gt;&lt;span style=&quot;background-color: initial;&quot;&gt;reach maximum&amp;nbsp; iteration&lt;/span&gt;" style="rhombus;whiteSpace=wrap;html=1;rounded=0;align=center;verticalAlign=middle;arcSize=50;fontFamily=Times New Roman;fontSize=16;fillColor=#f5f5f5;fontColor=#333333;strokeColor=#666666;" parent="1" vertex="1">
          <mxGeometry x="1592.33" y="-1535.4499999999998" width="138" height="64.25" as="geometry" />
        </mxCell>
        <mxCell id="znDbkGUDBgg_eZ-vlcGg-10" value="End" style="rounded=1;whiteSpace=wrap;html=1;absoluteArcSize=0;arcSize=50;align=center;verticalAlign=middle;fontFamily=Times New Roman;fontSize=18;fillColor=#f5f5f5;fontColor=#333333;strokeColor=#666666;" parent="1" vertex="1">
          <mxGeometry x="1623.2499186991872" y="-1069.2999999999993" width="93.49593495934958" height="30" as="geometry" />
        </mxCell>
        <mxCell id="znDbkGUDBgg_eZ-vlcGg-11" style="rounded=0;orthogonalLoop=1;jettySize=auto;html=1;fontFamily=Times New Roman;fontSize=18;" parent="1" source="znDbkGUDBgg_eZ-vlcGg-12" target="znDbkGUDBgg_eZ-vlcGg-10" edge="1">
          <mxGeometry relative="1" as="geometry" />
        </mxCell>
        <mxCell id="znDbkGUDBgg_eZ-vlcGg-12" value="&lt;font&gt;Calculate and update fitness values and best solutions&lt;/font&gt;" style="rounded=1;whiteSpace=wrap;html=1;align=center;verticalAlign=middle;arcSize=15;fontFamily=Times New Roman;fontSize=16;fillColor=#f5f5f5;fontColor=#333333;strokeColor=#666666;" parent="1" vertex="1">
          <mxGeometry x="1560" y="-1133.0699999999997" width="220" height="46.54" as="geometry" />
        </mxCell>
        <mxCell id="znDbkGUDBgg_eZ-vlcGg-13" value="&lt;font&gt;Yes&lt;/font&gt;" style="text;html=1;align=center;verticalAlign=middle;resizable=0;points=[];autosize=1;strokeColor=none;fillColor=none;fontSize=18;fontFamily=Times New Roman;" parent="1" vertex="1">
          <mxGeometry x="1728.6768292682923" y="-1535.4499999999998" width="50" height="40" as="geometry" />
        </mxCell>
        <mxCell id="znDbkGUDBgg_eZ-vlcGg-14" value="&lt;font&gt;No&lt;/font&gt;" style="text;html=1;align=center;verticalAlign=middle;resizable=0;points=[];autosize=1;fontSize=18;fontFamily=Times New Roman;" parent="1" vertex="1">
          <mxGeometry x="1656.034227642277" y="-1480.8500000000004" width="50" height="40" as="geometry" />
        </mxCell>
        <mxCell id="znDbkGUDBgg_eZ-vlcGg-15" style="edgeStyle=orthogonalEdgeStyle;rounded=0;orthogonalLoop=1;jettySize=auto;html=1;fontFamily=Times New Roman;fontSize=18;exitX=0;exitY=0.5;exitDx=0;exitDy=0;" parent="1" source="znDbkGUDBgg_eZ-vlcGg-17" target="znDbkGUDBgg_eZ-vlcGg-19" edge="1">
          <mxGeometry relative="1" as="geometry" />
        </mxCell>
        <mxCell id="znDbkGUDBgg_eZ-vlcGg-16" style="edgeStyle=orthogonalEdgeStyle;rounded=0;orthogonalLoop=1;jettySize=auto;html=1;fontFamily=Times New Roman;fontSize=18;exitX=1;exitY=0.5;exitDx=0;exitDy=0;" parent="1" source="znDbkGUDBgg_eZ-vlcGg-17" target="znDbkGUDBgg_eZ-vlcGg-25" edge="1">
          <mxGeometry relative="1" as="geometry" />
        </mxCell>
        <mxCell id="znDbkGUDBgg_eZ-vlcGg-17" value="rand &amp;lt; &lt;font&gt;0.5&lt;/font&gt;" style="rhombus;whiteSpace=wrap;html=1;rounded=0;align=center;verticalAlign=middle;arcSize=50;fontFamily=Times New Roman;fontSize=16;fillColor=#f5f5f5;fontColor=#333333;strokeColor=#666666;" parent="1" vertex="1">
          <mxGeometry x="1591.34" y="-1450.85" width="138.66" height="45.5" as="geometry" />
        </mxCell>
        <mxCell id="znDbkGUDBgg_eZ-vlcGg-18" style="edgeStyle=orthogonalEdgeStyle;rounded=0;orthogonalLoop=1;jettySize=auto;html=1;entryX=0.5;entryY=0;entryDx=0;entryDy=0;" parent="1" source="znDbkGUDBgg_eZ-vlcGg-19" target="znDbkGUDBgg_eZ-vlcGg-21" edge="1">
          <mxGeometry relative="1" as="geometry" />
        </mxCell>
        <mxCell id="znDbkGUDBgg_eZ-vlcGg-19" value="&lt;font style=&quot;font-size: 16px;&quot;&gt;Calculate the terrain gradient and&amp;nbsp; hikers&#39; speed&lt;/font&gt;" style="rounded=1;whiteSpace=wrap;html=1;align=center;verticalAlign=middle;arcSize=10;fontFamily=Times New Roman;fontSize=18;fillColor=#f5f5f5;fontColor=#333333;strokeColor=#666666;" parent="1" vertex="1">
          <mxGeometry x="1460" y="-1381.3899999999999" width="200" height="44" as="geometry" />
        </mxCell>
        <mxCell id="znDbkGUDBgg_eZ-vlcGg-20" style="edgeStyle=orthogonalEdgeStyle;rounded=0;orthogonalLoop=1;jettySize=auto;html=1;entryX=0.5;entryY=0;entryDx=0;entryDy=0;" parent="1" source="znDbkGUDBgg_eZ-vlcGg-21" target="znDbkGUDBgg_eZ-vlcGg-23" edge="1">
          <mxGeometry relative="1" as="geometry" />
        </mxCell>
        <mxCell id="znDbkGUDBgg_eZ-vlcGg-21" value="&lt;font style=&quot;font-size: 16px;&quot;&gt;Update the hikers&#39; velocities&lt;/font&gt;" style="rounded=1;whiteSpace=wrap;html=1;align=center;verticalAlign=middle;arcSize=15;fontFamily=Times New Roman;fontSize=18;fillColor=#f5f5f5;fontColor=#333333;strokeColor=#666666;" parent="1" vertex="1">
          <mxGeometry x="1475" y="-1316.6099999999997" width="170" height="39.56" as="geometry" />
        </mxCell>
        <mxCell id="znDbkGUDBgg_eZ-vlcGg-22" style="edgeStyle=orthogonalEdgeStyle;rounded=0;orthogonalLoop=1;jettySize=auto;html=1;fontFamily=Times New Roman;fontSize=18;" parent="1" source="znDbkGUDBgg_eZ-vlcGg-23" target="znDbkGUDBgg_eZ-vlcGg-31" edge="1">
          <mxGeometry relative="1" as="geometry">
            <Array as="points">
              <mxPoint x="1550" y="-1210.85" />
              <mxPoint x="1672" y="-1210.85" />
            </Array>
          </mxGeometry>
        </mxCell>
        <mxCell id="znDbkGUDBgg_eZ-vlcGg-23" value="&lt;font style=&quot;font-size: 16px;&quot;&gt;Update the hikers&#39; positions&lt;/font&gt;" style="rounded=1;whiteSpace=wrap;html=1;align=center;verticalAlign=middle;arcSize=15;fontFamily=Times New Roman;fontSize=18;fillColor=#f5f5f5;fontColor=#333333;strokeColor=#666666;" parent="1" vertex="1">
          <mxGeometry x="1475" y="-1266.9699999999998" width="170" height="38.89" as="geometry" />
        </mxCell>
        <mxCell id="znDbkGUDBgg_eZ-vlcGg-24" style="rounded=0;orthogonalLoop=1;jettySize=auto;html=1;" parent="1" source="znDbkGUDBgg_eZ-vlcGg-25" target="znDbkGUDBgg_eZ-vlcGg-27" edge="1">
          <mxGeometry relative="1" as="geometry" />
        </mxCell>
        <mxCell id="znDbkGUDBgg_eZ-vlcGg-25" value="Quadratic interpolation&amp;nbsp;" style="rounded=1;whiteSpace=wrap;html=1;align=center;verticalAlign=middle;arcSize=18;fontFamily=Times New Roman;fontSize=16;strokeColor=#b85450;fontColor=default;fillColor=#f8cecc;" parent="1" vertex="1">
          <mxGeometry x="1676.85" y="-1381.3899999999999" width="184.59" height="32.09" as="geometry" />
        </mxCell>
        <mxCell id="znDbkGUDBgg_eZ-vlcGg-26" style="edgeStyle=orthogonalEdgeStyle;rounded=0;orthogonalLoop=1;jettySize=auto;html=1;entryX=0.5;entryY=0;entryDx=0;entryDy=0;" parent="1" source="znDbkGUDBgg_eZ-vlcGg-27" target="znDbkGUDBgg_eZ-vlcGg-29" edge="1">
          <mxGeometry relative="1" as="geometry" />
        </mxCell>
        <mxCell id="znDbkGUDBgg_eZ-vlcGg-27" value="Evaluate fitness and update hikers&#39; positions&amp;nbsp;" style="rounded=1;whiteSpace=wrap;html=1;align=center;verticalAlign=middle;arcSize=14;fontFamily=Times New Roman;fontSize=16;fillColor=#f5f5f5;fontColor=#333333;strokeColor=#666666;" parent="1" vertex="1">
          <mxGeometry x="1679.35" y="-1334.1799999999998" width="179.59" height="46.54" as="geometry" />
        </mxCell>
        <mxCell id="znDbkGUDBgg_eZ-vlcGg-28" style="edgeStyle=orthogonalEdgeStyle;rounded=0;orthogonalLoop=1;jettySize=auto;html=1;fontFamily=Times New Roman;fontSize=18;" parent="1" source="znDbkGUDBgg_eZ-vlcGg-29" target="znDbkGUDBgg_eZ-vlcGg-31" edge="1">
          <mxGeometry relative="1" as="geometry">
            <Array as="points">
              <mxPoint x="1769" y="-1210.85" />
              <mxPoint x="1672" y="-1210.85" />
            </Array>
          </mxGeometry>
        </mxCell>
        <mxCell id="znDbkGUDBgg_eZ-vlcGg-29" value="Alert mechanism" style="rounded=1;whiteSpace=wrap;html=1;align=center;verticalAlign=middle;arcSize=14;fontFamily=Times New Roman;fontSize=16;strokeColor=#b85450;fontColor=default;fillColor=#f8cecc;" parent="1" vertex="1">
          <mxGeometry x="1676.85" y="-1267.3899999999999" width="184.59" height="34" as="geometry" />
        </mxCell>
        <mxCell id="znDbkGUDBgg_eZ-vlcGg-30" style="rounded=0;orthogonalLoop=1;jettySize=auto;html=1;fontFamily=Times New Roman;fontSize=18;" parent="1" source="znDbkGUDBgg_eZ-vlcGg-31" target="znDbkGUDBgg_eZ-vlcGg-12" edge="1">
          <mxGeometry relative="1" as="geometry" />
        </mxCell>
        <mxCell id="znDbkGUDBgg_eZ-vlcGg-31" value="Evaluate fitness and update hikers&#39; positions&amp;nbsp;" style="rounded=1;whiteSpace=wrap;html=1;align=center;verticalAlign=middle;arcSize=11;fontFamily=Times New Roman;fontSize=16;fillColor=#f5f5f5;fontColor=#333333;strokeColor=#666666;" parent="1" vertex="1">
          <mxGeometry x="1561.33" y="-1194.62" width="220" height="46.54" as="geometry" />
        </mxCell>
        <mxCell id="znDbkGUDBgg_eZ-vlcGg-32" value="&lt;font&gt;No&lt;/font&gt;" style="text;html=1;align=center;verticalAlign=middle;resizable=0;points=[];autosize=1;fontSize=18;fontFamily=Times New Roman;" parent="1" vertex="1">
          <mxGeometry x="1728.674227642277" y="-1462.0499999999997" width="50" height="40" as="geometry" />
        </mxCell>
        <mxCell id="3fcH1A0avGzYwGgjeC8N-1" style="rounded=0;orthogonalLoop=1;jettySize=auto;html=1;entryX=0.5;entryY=0;entryDx=0;entryDy=0;fontFamily=Times New Roman;fontSize=18;" parent="1" source="3fcH1A0avGzYwGgjeC8N-2" target="3fcH1A0avGzYwGgjeC8N-4" edge="1">
          <mxGeometry relative="1" as="geometry" />
        </mxCell>
        <mxCell id="3fcH1A0avGzYwGgjeC8N-2" value="Start" style="rounded=1;whiteSpace=wrap;html=1;absoluteArcSize=0;arcSize=50;fontSize=16;fontFamily=Times New Roman;fillColor=#f5f5f5;fontColor=#333333;strokeColor=#666666;" parent="1" vertex="1">
          <mxGeometry x="2531" y="-1660.72" width="78" height="21.53" as="geometry" />
        </mxCell>
        <mxCell id="3fcH1A0avGzYwGgjeC8N-3" style="rounded=0;orthogonalLoop=1;jettySize=auto;html=1;entryX=0.5;entryY=0;entryDx=0;entryDy=0;fontFamily=Times New Roman;fontSize=18;" parent="1" source="3fcH1A0avGzYwGgjeC8N-4" target="3fcH1A0avGzYwGgjeC8N-6" edge="1">
          <mxGeometry relative="1" as="geometry" />
        </mxCell>
        <mxCell id="3fcH1A0avGzYwGgjeC8N-4" value="&lt;font&gt;Chebyshev Mapping Initialization&lt;/font&gt;" style="rounded=1;whiteSpace=wrap;html=1;align=center;verticalAlign=middle;arcSize=18;fontFamily=Times New Roman;fontSize=16;fillColor=#f8cecc;fontColor=default;strokeColor=#b85450;" parent="1" vertex="1">
          <mxGeometry x="2450" y="-1619.19" width="240" height="29.19" as="geometry" />
        </mxCell>
        <mxCell id="3fcH1A0avGzYwGgjeC8N-5" style="edgeStyle=orthogonalEdgeStyle;rounded=0;orthogonalLoop=1;jettySize=auto;html=1;exitX=0.5;exitY=1;exitDx=0;exitDy=0;entryX=0.5;entryY=0;entryDx=0;entryDy=0;fontFamily=Times New Roman;fontSize=18;" parent="1" source="3fcH1A0avGzYwGgjeC8N-6" target="3fcH1A0avGzYwGgjeC8N-9" edge="1">
          <mxGeometry relative="1" as="geometry">
            <mxPoint x="2569.96" y="-1485.85" as="targetPoint" />
          </mxGeometry>
        </mxCell>
        <mxCell id="w1JR5-OPfSAF1FVDnx4g-20" style="edgeStyle=orthogonalEdgeStyle;rounded=0;orthogonalLoop=1;jettySize=auto;html=1;startArrow=classic;startFill=1;endArrow=none;exitX=0;exitY=0.5;exitDx=0;exitDy=0;" parent="1" source="3fcH1A0avGzYwGgjeC8N-6" edge="1">
          <mxGeometry relative="1" as="geometry">
            <mxPoint x="2580" y="-1130" as="targetPoint" />
            <Array as="points">
              <mxPoint x="2285" y="-1545" />
              <mxPoint x="2285" y="-1130" />
              <mxPoint x="2575" y="-1130" />
            </Array>
            <mxPoint x="2500" y="-1540" as="sourcePoint" />
          </mxGeometry>
        </mxCell>
        <mxCell id="3fcH1A0avGzYwGgjeC8N-6" value="" style="rhombus;whiteSpace=wrap;html=1;rounded=0;align=center;verticalAlign=middle;arcSize=50;fontFamily=Times New Roman;fontSize=16;fillColor=#f5f5f5;fontColor=#333333;strokeColor=#666666;" parent="1" vertex="1">
          <mxGeometry x="2501.33" y="-1570" width="138" height="50" as="geometry" />
        </mxCell>
        <mxCell id="3fcH1A0avGzYwGgjeC8N-7" value="&lt;font style=&quot;font-size: 14px;&quot;&gt;Yes&lt;/font&gt;" style="text;html=1;align=center;verticalAlign=middle;resizable=0;points=[];autosize=1;strokeColor=none;fillColor=none;fontSize=18;fontFamily=Times New Roman;" parent="1" vertex="1">
          <mxGeometry x="2630.3368292682926" y="-1579.9999999999998" width="40" height="40" as="geometry" />
        </mxCell>
        <mxCell id="3fcH1A0avGzYwGgjeC8N-8" value="&lt;span style=&quot;color: rgb(51, 51, 51); font-size: 16px; text-wrap-mode: wrap;&quot;&gt;&amp;nbsp;$$it \leq maxIter$$&lt;/span&gt;" style="text;html=1;align=center;verticalAlign=middle;resizable=0;points=[];autosize=1;fontSize=18;fontFamily=Times New Roman;" parent="1" vertex="1">
          <mxGeometry x="2495.3342276422773" y="-1575.4500000000005" width="150" height="40" as="geometry" />
        </mxCell>
        <mxCell id="3fcH1A0avGzYwGgjeC8N-11" style="edgeStyle=orthogonalEdgeStyle;rounded=0;orthogonalLoop=1;jettySize=auto;html=1;" parent="1" source="3fcH1A0avGzYwGgjeC8N-9" target="3fcH1A0avGzYwGgjeC8N-10" edge="1">
          <mxGeometry relative="1" as="geometry" />
        </mxCell>
        <mxCell id="3fcH1A0avGzYwGgjeC8N-9" value="&lt;font style=&quot;font-size: 16px;&quot;&gt;Update the judgement criterion k1&lt;/font&gt;" style="rounded=1;whiteSpace=wrap;html=1;align=center;verticalAlign=middle;arcSize=10;fontFamily=Times New Roman;fontSize=18;fillColor=#f5f5f5;fontColor=#333333;strokeColor=#666666;" parent="1" vertex="1">
          <mxGeometry x="2450" y="-1502.71" width="240" height="31.55" as="geometry" />
        </mxCell>
        <mxCell id="kWs4Y9X6Xl8HtvSmb7lV-12" style="edgeStyle=orthogonalEdgeStyle;rounded=0;orthogonalLoop=1;jettySize=auto;html=1;entryX=0.5;entryY=0;entryDx=0;entryDy=0;" parent="1" source="3fcH1A0avGzYwGgjeC8N-10" target="kWs4Y9X6Xl8HtvSmb7lV-11" edge="1">
          <mxGeometry relative="1" as="geometry" />
        </mxCell>
        <mxCell id="kWs4Y9X6Xl8HtvSmb7lV-13" style="edgeStyle=orthogonalEdgeStyle;rounded=0;orthogonalLoop=1;jettySize=auto;html=1;entryX=0.5;entryY=0;entryDx=0;entryDy=0;" parent="1" source="3fcH1A0avGzYwGgjeC8N-10" target="kWs4Y9X6Xl8HtvSmb7lV-1" edge="1">
          <mxGeometry relative="1" as="geometry">
            <mxPoint x="2440" y="-1400" as="targetPoint" />
          </mxGeometry>
        </mxCell>
        <mxCell id="3fcH1A0avGzYwGgjeC8N-10" value="k1 &amp;lt; 0.5" style="rhombus;whiteSpace=wrap;html=1;rounded=0;align=center;verticalAlign=middle;arcSize=50;fontFamily=Times New Roman;fontSize=16;fillColor=#f5f5f5;fontColor=#333333;strokeColor=#666666;" parent="1" vertex="1">
          <mxGeometry x="2520" y="-1451.77" width="100" height="32.78" as="geometry" />
        </mxCell>
        <mxCell id="3fcH1A0avGzYwGgjeC8N-12" value="&lt;font style=&quot;font-size: 16px;&quot;&gt;Update the position by eq.(12)&lt;/font&gt;" style="rounded=1;whiteSpace=wrap;html=1;align=center;verticalAlign=middle;arcSize=10;fontFamily=Times New Roman;fontSize=18;fillColor=#f5f5f5;fontColor=#333333;strokeColor=#666666;" parent="1" vertex="1">
          <mxGeometry x="2295.02" y="-1353.9999999999998" width="129.67" height="46.61" as="geometry" />
        </mxCell>
        <mxCell id="3fcH1A0avGzYwGgjeC8N-14" value="rand &amp;lt; 0.5" style="rhombus;whiteSpace=wrap;html=1;rounded=0;align=center;verticalAlign=middle;arcSize=50;fontFamily=Times New Roman;fontSize=16;fillColor=#f5f5f5;fontColor=#333333;strokeColor=#666666;" parent="1" vertex="1">
          <mxGeometry x="3625.17" y="-1292.72" width="110" height="38" as="geometry" />
        </mxCell>
        <mxCell id="3fcH1A0avGzYwGgjeC8N-17" value="&lt;font style=&quot;font-size: 16px;&quot;&gt;Update the position by eq.(13)&lt;/font&gt;" style="rounded=1;whiteSpace=wrap;html=1;align=center;verticalAlign=middle;arcSize=10;fontFamily=Times New Roman;fontSize=18;fillColor=#f5f5f5;fontColor=#333333;strokeColor=#666666;" parent="1" vertex="1">
          <mxGeometry x="2435.02" y="-1353.9999999999998" width="129.67" height="46.61" as="geometry" />
        </mxCell>
        <mxCell id="3fcH1A0avGzYwGgjeC8N-20" value="&lt;font style=&quot;font-size: 16px;&quot;&gt;Update the position by eq.(14)&lt;/font&gt;" style="rounded=1;whiteSpace=wrap;html=1;align=center;verticalAlign=middle;arcSize=10;fontFamily=Times New Roman;fontSize=18;fillColor=#f5f5f5;fontColor=#333333;strokeColor=#666666;" parent="1" vertex="1">
          <mxGeometry x="3540" y="-1242.3300000000002" width="129.67" height="40" as="geometry" />
        </mxCell>
        <mxCell id="3fcH1A0avGzYwGgjeC8N-21" value="&lt;font style=&quot;font-size: 16px;&quot;&gt;Improved Reflection operator refinement&lt;/font&gt;" style="rounded=1;whiteSpace=wrap;html=1;align=center;verticalAlign=middle;arcSize=18;fontFamily=Times New Roman;fontSize=16;fillColor=#f8cecc;fontColor=default;strokeColor=#b85450;" parent="1" vertex="1">
          <mxGeometry x="3685.17" y="-1242.3300000000002" width="140" height="40" as="geometry" />
        </mxCell>
        <mxCell id="w1JR5-OPfSAF1FVDnx4g-13" style="edgeStyle=orthogonalEdgeStyle;rounded=0;orthogonalLoop=1;jettySize=auto;html=1;entryX=0.5;entryY=0;entryDx=0;entryDy=0;" parent="1" source="3fcH1A0avGzYwGgjeC8N-22" target="w1JR5-OPfSAF1FVDnx4g-12" edge="1">
          <mxGeometry relative="1" as="geometry" />
        </mxCell>
        <mxCell id="3fcH1A0avGzYwGgjeC8N-22" value="&lt;font style=&quot;font-size: 16px;&quot;&gt;Generalized Quadratic Interpolation&lt;/font&gt;" style="rounded=1;whiteSpace=wrap;html=1;align=center;verticalAlign=middle;arcSize=18;fontFamily=Times New Roman;fontSize=16;fillColor=#f8cecc;fontColor=default;strokeColor=#b85450;" parent="1" vertex="1">
          <mxGeometry x="2450.33" y="-1219.2900000000002" width="240" height="31.55" as="geometry" />
        </mxCell>
        <mxCell id="kWs4Y9X6Xl8HtvSmb7lV-17" style="rounded=0;orthogonalLoop=1;jettySize=auto;html=1;entryX=0.5;entryY=0;entryDx=0;entryDy=0;" parent="1" source="w1JR5-OPfSAF1FVDnx4g-4" target="3fcH1A0avGzYwGgjeC8N-22" edge="1">
          <mxGeometry relative="1" as="geometry" />
        </mxCell>
        <mxCell id="kWs4Y9X6Xl8HtvSmb7lV-18" style="edgeStyle=orthogonalEdgeStyle;rounded=0;orthogonalLoop=1;jettySize=auto;html=1;strokeColor=default;align=center;verticalAlign=middle;fontFamily=Helvetica;fontSize=11;fontColor=default;labelBackgroundColor=default;startArrow=classic;startFill=1;endArrow=none;" parent="1" source="w1JR5-OPfSAF1FVDnx4g-4" edge="1">
          <mxGeometry relative="1" as="geometry">
            <mxPoint x="2360" y="-1307" as="targetPoint" />
            <Array as="points">
              <mxPoint x="2570" y="-1290" />
              <mxPoint x="2360" y="-1290" />
            </Array>
          </mxGeometry>
        </mxCell>
        <mxCell id="kWs4Y9X6Xl8HtvSmb7lV-19" style="edgeStyle=orthogonalEdgeStyle;rounded=0;orthogonalLoop=1;jettySize=auto;html=1;entryX=0.5;entryY=1;entryDx=0;entryDy=0;strokeColor=default;align=center;verticalAlign=middle;fontFamily=Helvetica;fontSize=11;fontColor=default;labelBackgroundColor=default;startArrow=classic;startFill=1;endArrow=none;" parent="1" source="w1JR5-OPfSAF1FVDnx4g-4" target="3fcH1A0avGzYwGgjeC8N-17" edge="1">
          <mxGeometry relative="1" as="geometry">
            <Array as="points">
              <mxPoint x="2570" y="-1290" />
              <mxPoint x="2500" y="-1290" />
            </Array>
          </mxGeometry>
        </mxCell>
        <mxCell id="kWs4Y9X6Xl8HtvSmb7lV-20" style="edgeStyle=orthogonalEdgeStyle;rounded=0;orthogonalLoop=1;jettySize=auto;html=1;strokeColor=default;align=center;verticalAlign=middle;fontFamily=Helvetica;fontSize=11;fontColor=default;labelBackgroundColor=default;startArrow=classic;startFill=1;endArrow=none;" parent="1" source="w1JR5-OPfSAF1FVDnx4g-4" target="kWs4Y9X6Xl8HtvSmb7lV-7" edge="1">
          <mxGeometry relative="1" as="geometry">
            <Array as="points">
              <mxPoint x="2570" y="-1290" />
              <mxPoint x="2645" y="-1290" />
            </Array>
          </mxGeometry>
        </mxCell>
        <mxCell id="kWs4Y9X6Xl8HtvSmb7lV-21" style="edgeStyle=orthogonalEdgeStyle;rounded=0;orthogonalLoop=1;jettySize=auto;html=1;endArrow=none;startFill=1;startArrow=classic;" parent="1" source="w1JR5-OPfSAF1FVDnx4g-4" target="kWs4Y9X6Xl8HtvSmb7lV-8" edge="1">
          <mxGeometry relative="1" as="geometry">
            <Array as="points">
              <mxPoint x="2570" y="-1290" />
              <mxPoint x="2795" y="-1290" />
            </Array>
          </mxGeometry>
        </mxCell>
        <mxCell id="w1JR5-OPfSAF1FVDnx4g-4" value="&lt;font&gt;Calculate and update fitness values and best solutions&lt;/font&gt;" style="rounded=1;whiteSpace=wrap;html=1;align=center;verticalAlign=middle;arcSize=15;fontFamily=Times New Roman;fontSize=16;fillColor=#f5f5f5;fontColor=#333333;strokeColor=#666666;" parent="1" vertex="1">
          <mxGeometry x="2470.33" y="-1277.0500000000002" width="200" height="42.24" as="geometry" />
        </mxCell>
        <mxCell id="w1JR5-OPfSAF1FVDnx4g-15" style="edgeStyle=orthogonalEdgeStyle;rounded=0;orthogonalLoop=1;jettySize=auto;html=1;entryX=0.5;entryY=0;entryDx=0;entryDy=0;" parent="1" source="w1JR5-OPfSAF1FVDnx4g-12" target="w1JR5-OPfSAF1FVDnx4g-14" edge="1">
          <mxGeometry relative="1" as="geometry" />
        </mxCell>
        <mxCell id="w1JR5-OPfSAF1FVDnx4g-12" value="Select better X" style="rounded=1;whiteSpace=wrap;html=1;align=center;verticalAlign=middle;arcSize=15;fontFamily=Times New Roman;fontSize=16;fillColor=#f5f5f5;fontColor=#333333;strokeColor=#666666;" parent="1" vertex="1">
          <mxGeometry x="2511.5" y="-1167.6700000000003" width="117.66" height="30.85" as="geometry" />
        </mxCell>
        <mxCell id="w1JR5-OPfSAF1FVDnx4g-14" value="End" style="rounded=1;whiteSpace=wrap;html=1;absoluteArcSize=0;arcSize=50;align=center;verticalAlign=middle;fontFamily=Times New Roman;fontSize=18;fillColor=#f5f5f5;fontColor=#333333;strokeColor=#666666;" parent="1" vertex="1">
          <mxGeometry x="2523.58" y="-1114.24" width="93.5" height="19.3" as="geometry" />
        </mxCell>
        <mxCell id="w1JR5-OPfSAF1FVDnx4g-21" value="&lt;font style=&quot;font-size: 14px;&quot;&gt;No&lt;/font&gt;" style="text;html=1;align=center;verticalAlign=middle;resizable=0;points=[];autosize=1;fontSize=18;fontFamily=Times New Roman;" parent="1" vertex="1">
          <mxGeometry x="2630.3342276422773" y="-1471.1600000000003" width="40" height="40" as="geometry" />
        </mxCell>
        <mxCell id="w1JR5-OPfSAF1FVDnx4g-22" value="&lt;font style=&quot;font-size: 14px;&quot;&gt;Yes&lt;/font&gt;" style="text;html=1;align=center;verticalAlign=middle;resizable=0;points=[];autosize=1;strokeColor=none;fillColor=none;fontSize=18;fontFamily=Times New Roman;" parent="1" vertex="1">
          <mxGeometry x="2471.4968292682925" y="-1471.2" width="40" height="40" as="geometry" />
        </mxCell>
        <mxCell id="kWs4Y9X6Xl8HtvSmb7lV-5" style="edgeStyle=orthogonalEdgeStyle;rounded=0;orthogonalLoop=1;jettySize=auto;html=1;" parent="1" source="kWs4Y9X6Xl8HtvSmb7lV-1" target="3fcH1A0avGzYwGgjeC8N-12" edge="1">
          <mxGeometry relative="1" as="geometry">
            <Array as="points">
              <mxPoint x="2360" y="-1394" />
            </Array>
          </mxGeometry>
        </mxCell>
        <mxCell id="kWs4Y9X6Xl8HtvSmb7lV-6" style="edgeStyle=orthogonalEdgeStyle;rounded=0;orthogonalLoop=1;jettySize=auto;html=1;entryX=0.5;entryY=0;entryDx=0;entryDy=0;" parent="1" source="kWs4Y9X6Xl8HtvSmb7lV-1" target="3fcH1A0avGzYwGgjeC8N-17" edge="1">
          <mxGeometry relative="1" as="geometry">
            <Array as="points">
              <mxPoint x="2500" y="-1394" />
              <mxPoint x="2500" y="-1354" />
            </Array>
          </mxGeometry>
        </mxCell>
        <mxCell id="kWs4Y9X6Xl8HtvSmb7lV-1" value="rand &amp;lt; 0.5" style="rhombus;whiteSpace=wrap;html=1;rounded=0;align=center;verticalAlign=middle;arcSize=50;fontFamily=Times New Roman;fontSize=16;fillColor=#f5f5f5;fontColor=#333333;strokeColor=#666666;" parent="1" vertex="1">
          <mxGeometry x="2379.8500000000004" y="-1413.6499999999999" width="100" height="40" as="geometry" />
        </mxCell>
        <mxCell id="kWs4Y9X6Xl8HtvSmb7lV-7" value="&lt;font style=&quot;font-size: 16px;&quot;&gt;Update the position by eq.(12)&lt;/font&gt;" style="rounded=1;whiteSpace=wrap;html=1;align=center;verticalAlign=middle;arcSize=10;fontFamily=Times New Roman;fontSize=18;fillColor=#f5f5f5;fontColor=#333333;strokeColor=#666666;" parent="1" vertex="1">
          <mxGeometry x="2579.8399999999997" y="-1353.9999999999998" width="129.67" height="46.61" as="geometry" />
        </mxCell>
        <mxCell id="kWs4Y9X6Xl8HtvSmb7lV-8" value="&lt;span style=&quot;color: rgb(0, 0, 0); font-size: 16px;&quot;&gt;Improved Reflection operator refinement&lt;/span&gt;" style="rounded=1;whiteSpace=wrap;html=1;align=center;verticalAlign=middle;arcSize=18;fontFamily=Times New Roman;fontSize=16;fillColor=#f8cecc;fontColor=default;strokeColor=#b85450;" parent="1" vertex="1">
          <mxGeometry x="2724.8399999999997" y="-1354" width="139.67" height="46.61" as="geometry" />
        </mxCell>
        <mxCell id="kWs4Y9X6Xl8HtvSmb7lV-9" style="edgeStyle=orthogonalEdgeStyle;rounded=0;orthogonalLoop=1;jettySize=auto;html=1;" parent="1" source="kWs4Y9X6Xl8HtvSmb7lV-11" target="kWs4Y9X6Xl8HtvSmb7lV-7" edge="1">
          <mxGeometry relative="1" as="geometry">
            <Array as="points">
              <mxPoint x="2644.68" y="-1393.6499999999999" />
            </Array>
          </mxGeometry>
        </mxCell>
        <mxCell id="kWs4Y9X6Xl8HtvSmb7lV-10" style="edgeStyle=orthogonalEdgeStyle;rounded=0;orthogonalLoop=1;jettySize=auto;html=1;" parent="1" source="kWs4Y9X6Xl8HtvSmb7lV-11" target="kWs4Y9X6Xl8HtvSmb7lV-8" edge="1">
          <mxGeometry relative="1" as="geometry">
            <Array as="points">
              <mxPoint x="2794.68" y="-1393.6499999999999" />
            </Array>
          </mxGeometry>
        </mxCell>
        <mxCell id="kWs4Y9X6Xl8HtvSmb7lV-11" value="rand &amp;lt; 0.5" style="rhombus;whiteSpace=wrap;html=1;rounded=0;align=center;verticalAlign=middle;arcSize=50;fontFamily=Times New Roman;fontSize=16;fillColor=#f5f5f5;fontColor=#333333;strokeColor=#666666;" parent="1" vertex="1">
          <mxGeometry x="2669.68" y="-1413.6499999999999" width="100" height="40" as="geometry" />
        </mxCell>
        <mxCell id="kWs4Y9X6Xl8HtvSmb7lV-15" value="&lt;font style=&quot;font-size: 12px;&quot;&gt;Exploration&lt;/font&gt;" style="text;html=1;align=center;verticalAlign=middle;resizable=0;points=[];autosize=1;strokeColor=none;fillColor=none;fontSize=18;fontFamily=Times New Roman;" parent="1" vertex="1">
          <mxGeometry x="2389.6668292682925" y="-1385.34" width="80" height="40" as="geometry" />
        </mxCell>
        <mxCell id="kWs4Y9X6Xl8HtvSmb7lV-16" value="&lt;font style=&quot;font-size: 12px;&quot;&gt;Exploitation&lt;/font&gt;" style="text;html=1;align=center;verticalAlign=middle;resizable=0;points=[];autosize=1;strokeColor=none;fillColor=none;fontSize=18;fontFamily=Times New Roman;" parent="1" vertex="1">
          <mxGeometry x="2679.3268292682924" y="-1385.34" width="80" height="40" as="geometry" />
        </mxCell>
        <mxCell id="kWs4Y9X6Xl8HtvSmb7lV-22" value="&lt;font style=&quot;font-size: 14px;&quot;&gt;No&lt;/font&gt;" style="text;html=1;align=center;verticalAlign=middle;resizable=0;points=[];autosize=1;fontSize=18;fontFamily=Times New Roman;" parent="1" vertex="1">
          <mxGeometry x="2580.0042276422773" y="-1535.4500000000003" width="40" height="40" as="geometry" />
        </mxCell>
        <mxCell id="8XOl0G0nZxYfW0vXw_sf-32" value="" style="rounded=1;whiteSpace=wrap;html=1;dashed=1;fontFamily=Times New Roman;fontSize=18;strokeColor=#6c8ebf;fillColor=#dae8fc;movable=1;resizable=1;rotatable=1;deletable=1;editable=1;locked=0;connectable=1;" vertex="1" parent="1">
          <mxGeometry x="2476.5" y="-482.93000000000006" width="279.68" height="75.54" as="geometry" />
        </mxCell>
        <mxCell id="8XOl0G0nZxYfW0vXw_sf-33" value="" style="rounded=1;whiteSpace=wrap;html=1;dashed=1;fontFamily=Times New Roman;fontSize=18;strokeColor=#9673a6;fillColor=#e1d5e7;" vertex="1" parent="1">
          <mxGeometry x="2761.34" y="-482.93" width="448.66" height="75.54" as="geometry" />
        </mxCell>
        <mxCell id="8XOl0G0nZxYfW0vXw_sf-35" style="rounded=0;orthogonalLoop=1;jettySize=auto;html=1;entryX=0.5;entryY=0;entryDx=0;entryDy=0;fontFamily=Times New Roman;fontSize=18;" edge="1" parent="1" source="8XOl0G0nZxYfW0vXw_sf-36">
          <mxGeometry relative="1" as="geometry">
            <mxPoint x="2756.5" y="-728.4700000000003" as="targetPoint" />
          </mxGeometry>
        </mxCell>
        <mxCell id="8XOl0G0nZxYfW0vXw_sf-36" value="Start" style="rounded=1;whiteSpace=wrap;html=1;absoluteArcSize=0;arcSize=18;fontSize=16;fontFamily=Times New Roman;fillColor=default;fontColor=default;strokeColor=default;align=center;verticalAlign=middle;" vertex="1" parent="1">
          <mxGeometry x="2717.5" y="-770" width="78" height="21.53" as="geometry" />
        </mxCell>
        <mxCell id="8XOl0G0nZxYfW0vXw_sf-37" style="rounded=0;orthogonalLoop=1;jettySize=auto;html=1;entryX=0.5;entryY=0;entryDx=0;entryDy=0;fontFamily=Times New Roman;fontSize=18;" edge="1" parent="1" target="8XOl0G0nZxYfW0vXw_sf-41">
          <mxGeometry relative="1" as="geometry">
            <mxPoint x="2756.6392209856917" y="-699.2800000000002" as="sourcePoint" />
          </mxGeometry>
        </mxCell>
        <mxCell id="8XOl0G0nZxYfW0vXw_sf-39" style="edgeStyle=orthogonalEdgeStyle;rounded=0;orthogonalLoop=1;jettySize=auto;html=1;exitX=0.5;exitY=1;exitDx=0;exitDy=0;entryX=0.5;entryY=0;entryDx=0;entryDy=0;fontFamily=Times New Roman;fontSize=18;" edge="1" parent="1" source="8XOl0G0nZxYfW0vXw_sf-41" target="8XOl0G0nZxYfW0vXw_sf-45">
          <mxGeometry relative="1" as="geometry">
            <mxPoint x="2756.46" y="-595.1299999999999" as="targetPoint" />
          </mxGeometry>
        </mxCell>
        <mxCell id="8XOl0G0nZxYfW0vXw_sf-41" value="" style="rhombus;whiteSpace=wrap;html=1;rounded=0;align=center;verticalAlign=middle;arcSize=18;fontFamily=Times New Roman;fontSize=16;fillColor=default;fontColor=default;strokeColor=default;" vertex="1" parent="1">
          <mxGeometry x="2687.83" y="-679.28" width="138" height="50" as="geometry" />
        </mxCell>
        <mxCell id="8XOl0G0nZxYfW0vXw_sf-42" value="&lt;font style=&quot;font-size: 14px;&quot;&gt;Yes&lt;/font&gt;" style="text;html=1;align=center;verticalAlign=middle;resizable=0;points=[];autosize=1;strokeColor=none;fillColor=none;fontSize=18;fontFamily=Times New Roman;" vertex="1" parent="1">
          <mxGeometry x="2816.8368292682926" y="-689.2799999999997" width="40" height="40" as="geometry" />
        </mxCell>
        <mxCell id="8XOl0G0nZxYfW0vXw_sf-43" value="&lt;span style=&quot;font-size: 16px; text-wrap-mode: wrap;&quot;&gt;&lt;font&gt;&amp;nbsp;$$it \leq maxIter$$&lt;/font&gt;&lt;/span&gt;" style="text;html=1;align=center;verticalAlign=middle;resizable=0;points=[];autosize=1;fontSize=16;fontFamily=Times New Roman;" vertex="1" parent="1">
          <mxGeometry x="2681.8342276422773" y="-679.7300000000005" width="150" height="30" as="geometry" />
        </mxCell>
        <mxCell id="8XOl0G0nZxYfW0vXw_sf-44" style="edgeStyle=orthogonalEdgeStyle;rounded=0;orthogonalLoop=1;jettySize=auto;html=1;" edge="1" parent="1" source="8XOl0G0nZxYfW0vXw_sf-45" target="8XOl0G0nZxYfW0vXw_sf-48">
          <mxGeometry relative="1" as="geometry" />
        </mxCell>
        <mxCell id="8XOl0G0nZxYfW0vXw_sf-45" value="&lt;font style=&quot;font-size: 16px;&quot;&gt;Update the judgement criterion k1&lt;/font&gt;" style="rounded=1;whiteSpace=wrap;html=1;align=center;verticalAlign=middle;arcSize=18;fontFamily=Times New Roman;fontSize=16;fillColor=default;fontColor=default;strokeColor=default;" vertex="1" parent="1">
          <mxGeometry x="2636.5" y="-611.99" width="240" height="31.55" as="geometry" />
        </mxCell>
        <mxCell id="8XOl0G0nZxYfW0vXw_sf-46" style="edgeStyle=orthogonalEdgeStyle;rounded=0;orthogonalLoop=1;jettySize=auto;html=1;entryX=0.5;entryY=0;entryDx=0;entryDy=0;" edge="1" parent="1" source="8XOl0G0nZxYfW0vXw_sf-48" target="8XOl0G0nZxYfW0vXw_sf-71">
          <mxGeometry relative="1" as="geometry" />
        </mxCell>
        <mxCell id="8XOl0G0nZxYfW0vXw_sf-47" style="edgeStyle=orthogonalEdgeStyle;rounded=0;orthogonalLoop=1;jettySize=auto;html=1;entryX=0.5;entryY=0;entryDx=0;entryDy=0;" edge="1" parent="1" source="8XOl0G0nZxYfW0vXw_sf-48" target="8XOl0G0nZxYfW0vXw_sf-66">
          <mxGeometry relative="1" as="geometry">
            <mxPoint x="2626.5" y="-509.28" as="targetPoint" />
          </mxGeometry>
        </mxCell>
        <mxCell id="8XOl0G0nZxYfW0vXw_sf-48" value="k1 &amp;lt; 0.5" style="rhombus;whiteSpace=wrap;html=1;rounded=1;align=center;verticalAlign=middle;arcSize=18;fontFamily=Times New Roman;fontSize=16;fillColor=default;fontColor=default;strokeColor=default;" vertex="1" parent="1">
          <mxGeometry x="2706.5" y="-561.05" width="100" height="32.78" as="geometry" />
        </mxCell>
        <mxCell id="8XOl0G0nZxYfW0vXw_sf-49" value="&lt;font style=&quot;font-size: 16px;&quot;&gt;Update the position by eq.(12)&lt;/font&gt;" style="rounded=1;whiteSpace=wrap;html=1;align=center;verticalAlign=middle;arcSize=18;fontFamily=Times New Roman;fontSize=16;fillColor=default;fontColor=default;strokeColor=default;" vertex="1" parent="1">
          <mxGeometry x="2481.52" y="-463.27999999999975" width="129.67" height="46.61" as="geometry" />
        </mxCell>
        <mxCell id="8XOl0G0nZxYfW0vXw_sf-50" value="&lt;font style=&quot;font-size: 16px;&quot;&gt;Update the position by eq.(13)&lt;/font&gt;" style="rounded=1;whiteSpace=wrap;html=1;align=center;verticalAlign=middle;arcSize=18;fontFamily=Times New Roman;fontSize=16;fillColor=default;fontColor=default;strokeColor=default;" vertex="1" parent="1">
          <mxGeometry x="2621.52" y="-463.27999999999975" width="129.67" height="46.61" as="geometry" />
        </mxCell>
        <mxCell id="8XOl0G0nZxYfW0vXw_sf-51" style="edgeStyle=orthogonalEdgeStyle;rounded=0;orthogonalLoop=1;jettySize=auto;html=1;entryX=0.5;entryY=0;entryDx=0;entryDy=0;" edge="1" parent="1" target="8XOl0G0nZxYfW0vXw_sf-60">
          <mxGeometry relative="1" as="geometry">
            <mxPoint x="2756.809523809524" y="-344.09" as="sourcePoint" />
          </mxGeometry>
        </mxCell>
        <mxCell id="8XOl0G0nZxYfW0vXw_sf-54" style="edgeStyle=orthogonalEdgeStyle;rounded=0;orthogonalLoop=1;jettySize=auto;html=1;strokeColor=default;align=center;verticalAlign=middle;fontFamily=Helvetica;fontSize=11;fontColor=default;labelBackgroundColor=default;startArrow=classic;startFill=1;endArrow=none;" edge="1" parent="1" source="8XOl0G0nZxYfW0vXw_sf-58">
          <mxGeometry relative="1" as="geometry">
            <mxPoint x="2546.5" y="-416.28" as="targetPoint" />
            <Array as="points">
              <mxPoint x="2756.5" y="-399.28" />
              <mxPoint x="2546.5" y="-399.28" />
            </Array>
          </mxGeometry>
        </mxCell>
        <mxCell id="8XOl0G0nZxYfW0vXw_sf-55" style="edgeStyle=orthogonalEdgeStyle;rounded=0;orthogonalLoop=1;jettySize=auto;html=1;entryX=0.5;entryY=1;entryDx=0;entryDy=0;strokeColor=default;align=center;verticalAlign=middle;fontFamily=Helvetica;fontSize=11;fontColor=default;labelBackgroundColor=default;startArrow=classic;startFill=1;endArrow=none;" edge="1" parent="1" source="8XOl0G0nZxYfW0vXw_sf-58" target="8XOl0G0nZxYfW0vXw_sf-50">
          <mxGeometry relative="1" as="geometry">
            <Array as="points">
              <mxPoint x="2756.5" y="-399.28" />
              <mxPoint x="2686.5" y="-399.28" />
            </Array>
          </mxGeometry>
        </mxCell>
        <mxCell id="8XOl0G0nZxYfW0vXw_sf-56" style="edgeStyle=orthogonalEdgeStyle;rounded=0;orthogonalLoop=1;jettySize=auto;html=1;strokeColor=default;align=center;verticalAlign=middle;fontFamily=Helvetica;fontSize=11;fontColor=default;labelBackgroundColor=default;startArrow=classic;startFill=1;endArrow=none;" edge="1" parent="1" source="8XOl0G0nZxYfW0vXw_sf-58" target="8XOl0G0nZxYfW0vXw_sf-67">
          <mxGeometry relative="1" as="geometry">
            <Array as="points">
              <mxPoint x="2756.5" y="-399.28" />
              <mxPoint x="2831.5" y="-399.28" />
            </Array>
          </mxGeometry>
        </mxCell>
        <mxCell id="8XOl0G0nZxYfW0vXw_sf-57" style="edgeStyle=orthogonalEdgeStyle;rounded=0;orthogonalLoop=1;jettySize=auto;html=1;endArrow=none;startFill=1;startArrow=classic;" edge="1" parent="1" source="8XOl0G0nZxYfW0vXw_sf-58" target="8XOl0G0nZxYfW0vXw_sf-68">
          <mxGeometry relative="1" as="geometry">
            <Array as="points">
              <mxPoint x="2756.5" y="-399.28" />
              <mxPoint x="2981.5" y="-399.28" />
            </Array>
          </mxGeometry>
        </mxCell>
        <mxCell id="8XOl0G0nZxYfW0vXw_sf-58" value="&lt;font&gt;Calculate and update fitness values and best solutions&lt;/font&gt;" style="rounded=1;whiteSpace=wrap;html=1;align=center;verticalAlign=middle;arcSize=18;fontFamily=Times New Roman;fontSize=16;fillColor=default;fontColor=default;strokeColor=default;" vertex="1" parent="1">
          <mxGeometry x="2656.83" y="-386.33000000000015" width="200" height="42.24" as="geometry" />
        </mxCell>
        <mxCell id="8XOl0G0nZxYfW0vXw_sf-59" style="edgeStyle=orthogonalEdgeStyle;rounded=0;orthogonalLoop=1;jettySize=auto;html=1;entryX=0.5;entryY=0;entryDx=0;entryDy=0;" edge="1" parent="1" source="8XOl0G0nZxYfW0vXw_sf-60" target="8XOl0G0nZxYfW0vXw_sf-61">
          <mxGeometry relative="1" as="geometry" />
        </mxCell>
        <mxCell id="8XOl0G0nZxYfW0vXw_sf-60" value="Select better X" style="rounded=1;whiteSpace=wrap;html=1;align=center;verticalAlign=middle;arcSize=18;fontFamily=Times New Roman;fontSize=16;fillColor=default;fontColor=default;strokeColor=default;" vertex="1" parent="1">
          <mxGeometry x="2698" y="-324.02000000000027" width="117.66" height="30.85" as="geometry" />
        </mxCell>
        <mxCell id="8XOl0G0nZxYfW0vXw_sf-61" value="End" style="rounded=1;whiteSpace=wrap;html=1;absoluteArcSize=0;arcSize=18;align=center;verticalAlign=middle;fontFamily=Times New Roman;fontSize=16;fillColor=default;fontColor=default;strokeColor=default;" vertex="1" parent="1">
          <mxGeometry x="2710.08" y="-270.59" width="93.5" height="19.3" as="geometry" />
        </mxCell>
        <mxCell id="8XOl0G0nZxYfW0vXw_sf-62" value="&lt;font style=&quot;font-size: 14px;&quot;&gt;No&lt;/font&gt;" style="text;html=1;align=center;verticalAlign=middle;resizable=0;points=[];autosize=1;fontSize=18;fontFamily=Times New Roman;" vertex="1" parent="1">
          <mxGeometry x="2816.8342276422773" y="-580.4400000000003" width="40" height="40" as="geometry" />
        </mxCell>
        <mxCell id="8XOl0G0nZxYfW0vXw_sf-63" value="&lt;font style=&quot;font-size: 14px;&quot;&gt;Yes&lt;/font&gt;" style="text;html=1;align=center;verticalAlign=middle;resizable=0;points=[];autosize=1;strokeColor=none;fillColor=none;fontSize=18;fontFamily=Times New Roman;" vertex="1" parent="1">
          <mxGeometry x="2657.9968292682925" y="-580.48" width="40" height="40" as="geometry" />
        </mxCell>
        <mxCell id="8XOl0G0nZxYfW0vXw_sf-64" style="edgeStyle=orthogonalEdgeStyle;rounded=0;orthogonalLoop=1;jettySize=auto;html=1;" edge="1" parent="1" source="8XOl0G0nZxYfW0vXw_sf-66" target="8XOl0G0nZxYfW0vXw_sf-49">
          <mxGeometry relative="1" as="geometry">
            <Array as="points">
              <mxPoint x="2546.5" y="-503.28" />
            </Array>
          </mxGeometry>
        </mxCell>
        <mxCell id="8XOl0G0nZxYfW0vXw_sf-65" style="edgeStyle=orthogonalEdgeStyle;rounded=0;orthogonalLoop=1;jettySize=auto;html=1;entryX=0.5;entryY=0;entryDx=0;entryDy=0;" edge="1" parent="1" source="8XOl0G0nZxYfW0vXw_sf-66" target="8XOl0G0nZxYfW0vXw_sf-50">
          <mxGeometry relative="1" as="geometry">
            <Array as="points">
              <mxPoint x="2686.5" y="-503.28" />
              <mxPoint x="2686.5" y="-463.28" />
            </Array>
          </mxGeometry>
        </mxCell>
        <mxCell id="8XOl0G0nZxYfW0vXw_sf-66" value="rand &amp;lt; 0.5" style="rhombus;whiteSpace=wrap;html=1;rounded=0;align=center;verticalAlign=middle;arcSize=18;fontFamily=Times New Roman;fontSize=16;fillColor=default;fontColor=default;strokeColor=default;" vertex="1" parent="1">
          <mxGeometry x="2566.3500000000004" y="-522.9299999999998" width="100" height="40" as="geometry" />
        </mxCell>
        <mxCell id="8XOl0G0nZxYfW0vXw_sf-67" value="&lt;font style=&quot;font-size: 16px;&quot;&gt;Update the position by eq.(12)&lt;/font&gt;" style="rounded=1;whiteSpace=wrap;html=1;align=center;verticalAlign=middle;arcSize=18;fontFamily=Times New Roman;fontSize=16;fillColor=default;fontColor=default;strokeColor=default;" vertex="1" parent="1">
          <mxGeometry x="2766.34" y="-463.28" width="133.66" height="46.61" as="geometry" />
        </mxCell>
        <mxCell id="8XOl0G0nZxYfW0vXw_sf-68" value="Update the position by eq.(12)" style="rounded=1;whiteSpace=wrap;html=1;align=center;verticalAlign=middle;arcSize=18;fontFamily=Times New Roman;fontSize=16;" vertex="1" parent="1">
          <mxGeometry x="2911.3399999999997" y="-463.28" width="139.67" height="46.61" as="geometry" />
        </mxCell>
        <mxCell id="8XOl0G0nZxYfW0vXw_sf-69" style="edgeStyle=orthogonalEdgeStyle;rounded=0;orthogonalLoop=1;jettySize=auto;html=1;" edge="1" parent="1" source="8XOl0G0nZxYfW0vXw_sf-71" target="8XOl0G0nZxYfW0vXw_sf-67">
          <mxGeometry relative="1" as="geometry">
            <Array as="points">
              <mxPoint x="2831.18" y="-502.92999999999984" />
            </Array>
          </mxGeometry>
        </mxCell>
        <mxCell id="8XOl0G0nZxYfW0vXw_sf-70" style="edgeStyle=orthogonalEdgeStyle;rounded=0;orthogonalLoop=1;jettySize=auto;html=1;" edge="1" parent="1" source="8XOl0G0nZxYfW0vXw_sf-71" target="8XOl0G0nZxYfW0vXw_sf-68">
          <mxGeometry relative="1" as="geometry">
            <Array as="points">
              <mxPoint x="2981.18" y="-502.92999999999984" />
            </Array>
          </mxGeometry>
        </mxCell>
        <mxCell id="8XOl0G0nZxYfW0vXw_sf-77" style="edgeStyle=orthogonalEdgeStyle;rounded=0;orthogonalLoop=1;jettySize=auto;html=1;" edge="1" parent="1" source="8XOl0G0nZxYfW0vXw_sf-71" target="8XOl0G0nZxYfW0vXw_sf-76">
          <mxGeometry relative="1" as="geometry" />
        </mxCell>
        <mxCell id="8XOl0G0nZxYfW0vXw_sf-71" value="rand &amp;lt; 0.5" style="rhombus;whiteSpace=wrap;html=1;rounded=0;align=center;verticalAlign=middle;arcSize=18;fontFamily=Times New Roman;fontSize=16;fillColor=default;fontColor=default;strokeColor=default;" vertex="1" parent="1">
          <mxGeometry x="2931.18" y="-522.9299999999998" width="100" height="40" as="geometry" />
        </mxCell>
        <mxCell id="8XOl0G0nZxYfW0vXw_sf-72" value="&lt;font style=&quot;font-size: 12px;&quot;&gt;Exploration&lt;/font&gt;" style="text;html=1;align=center;verticalAlign=middle;resizable=0;points=[];autosize=1;strokeColor=none;fillColor=none;fontSize=18;fontFamily=Times New Roman;" vertex="1" parent="1">
          <mxGeometry x="2576.1668292682925" y="-494.6199999999999" width="80" height="40" as="geometry" />
        </mxCell>
        <mxCell id="8XOl0G0nZxYfW0vXw_sf-73" value="&lt;font style=&quot;font-size: 12px;&quot;&gt;Exploitation&lt;/font&gt;" style="text;html=1;align=center;verticalAlign=middle;resizable=0;points=[];autosize=1;strokeColor=none;fillColor=none;fontSize=18;fontFamily=Times New Roman;" vertex="1" parent="1">
          <mxGeometry x="2889.9968292682925" y="-494.6199999999999" width="80" height="40" as="geometry" />
        </mxCell>
        <mxCell id="8XOl0G0nZxYfW0vXw_sf-74" value="&lt;font style=&quot;font-size: 14px;&quot;&gt;No&lt;/font&gt;" style="text;html=1;align=center;verticalAlign=middle;resizable=0;points=[];autosize=1;fontSize=18;fontFamily=Times New Roman;" vertex="1" parent="1">
          <mxGeometry x="2766.5042276422773" y="-644.7300000000002" width="40" height="40" as="geometry" />
        </mxCell>
        <mxCell id="8XOl0G0nZxYfW0vXw_sf-76" value="Update the position by eq.(12)" style="rounded=1;whiteSpace=wrap;html=1;align=center;verticalAlign=middle;arcSize=18;fontFamily=Times New Roman;fontSize=16;" vertex="1" parent="1">
          <mxGeometry x="3059.9999999999995" y="-463.28" width="139.67" height="46.61" as="geometry" />
        </mxCell>
      </root>
    </mxGraphModel>
  </diagram>
</mxfile>
